<svg xmlns="http://www.w3.org/2000/svg" width="1200" height="630" viewBox="0 0 1200 630" role="img" aria-label="FIFA World Cup 2026 Predictor and Simulator">
  <defs>
    <linearGradient id="bg" x1="0%" y1="0%" x2="100%" y2="100%">
      <stop offset="0%" stop-color="#080b16"/>
      <stop offset="55%" stop-color="#0c1120"/>
      <stop offset="100%" stop-color="#121a2e"/>
    </linearGradient>
    <linearGradient id="gold" x1="0%" y1="0%" x2="0%" y2="100%">
      <stop offset="0%" stop-color="#f5cb5c"/>
      <stop offset="100%" stop-color="#e6b339"/>
    </linearGradient>
  </defs>
  <rect width="1200" height="630" fill="url(#bg)"/>
  <circle cx="980" cy="120" r="220" fill="#e6b339" opacity="0.06"/>
  <circle cx="180" cy="520" r="180" fill="#38d39a" opacity="0.05"/>
  <g transform="translate(96 168)">
    <rect width="88" height="88" rx="18" fill="url(#gold)"/>
    <path fill="#080b16" transform="translate(22 20) scale(1.85)" d="M6 3h12v2h3v3a4 4 0 0 1-4 4h-.3A6 6 0 0 1 13 15.9V18h3v2H8v-2h3v-2.1A6 6 0 0 1 7.3 12H7a4 4 0 0 1-4-4V5h3V3Zm0 4H5v1a2 2 0 0 0 1 1.7V7Zm12 0v2.7A2 2 0 0 0 19 8V7h-1Z"/>
  </g>
  <text x="96" y="340" fill="#ffffff" font-family="Arial Narrow, Arial, sans-serif" font-size="92" font-weight="700" letter-spacing="2">WORLD CUP</text>
  <text x="96" y="430" fill="#e6b339" font-family="Arial Narrow, Arial, sans-serif" font-size="92" font-weight="700" letter-spacing="2">2026</text>
  <text x="96" y="500" fill="#9ca3af" font-family="Arial, Helvetica, sans-serif" font-size="34" letter-spacing="6">BRACKET PREDICTOR &amp; SIMULATOR</text>
  <text x="96" y="560" fill="#6b7280" font-family="Arial, Helvetica, sans-serif" font-size="26">Groups, third place, knockout, awards, PNG export</text>
</svg>
